<?xml version="1.0" encoding="UTF-8" standalone="no"?>
<!-- Created with Inkscape (http://www.inkscape.org/) -->

<svg
   xmlns:dc="http://purl.org/dc/elements/1.1/"
   xmlns:cc="http://creativecommons.org/ns#"
   xmlns:rdf="http://www.w3.org/1999/02/22-rdf-syntax-ns#"
   xmlns:svg="http://www.w3.org/2000/svg"
   xmlns="http://www.w3.org/2000/svg"
   xmlns:sodipodi="http://sodipodi.sourceforge.net/DTD/sodipodi-0.dtd"
   xmlns:inkscape="http://www.inkscape.org/namespaces/inkscape"
   id="svg2"
   sodipodi:docname="doghouse.svg"
   viewBox="0 0 289.77128 287.9632"
   sodipodi:version="0.32"
   version="1.0"
   inkscape:output_extension="org.inkscape.output.svg.inkscape"
   inkscape:version="0.91 r13725"
   width="289.77127"
   height="287.9632">
  <defs
     id="defs4" />
  <sodipodi:namedview
     id="base"
     fit-margin-left="0"
     inkscape:zoom="1.9064936"
     borderopacity="1.0"
     inkscape:current-layer="layer1"
     inkscape:cx="195.23986"
     inkscape:cy="132.96661"
     inkscape:window-maximized="0"
     showgrid="false"
     fit-margin-right="0"
     inkscape:guide-bbox="true"
     inkscape:snap-global="false"
     showguides="false"
     bordercolor="#666666"
     inkscape:window-x="74"
     guidetolerance="10"
     objecttolerance="10000"
     inkscape:window-y="25"
     fit-margin-bottom="0"
     inkscape:window-width="1280"
     inkscape:pageopacity="0.0"
     inkscape:pageshadow="2"
     pagecolor="#ffffff"
     gridtolerance="10000"
     inkscape:document-units="px"
     inkscape:window-height="751"
     fit-margin-top="0" />
  <g
     id="layer1"
     inkscape:label="Layer 1"
     inkscape:groupmode="layer"
     transform="translate(-363.75641,-320.54946)">
    <g
       id="g4197">
      <path
         id="path4193"
         transform="translate(373.76,320.54)"
         d="m 258.55664,88.269531 -63.50781,55.675779 0,143.85157 63.50781,-55.67579 0,-143.851559 z"
         style="fill:#783b00;fill-opacity:1"
         inkscape:connector-curvature="0" />
      <path
         id="path3834"
         transform="translate(373.76,320.54)"
         d="m 105.30859,48.384766 -95.6972619,90.529294 0,144.97266 185.4375019,4.08594 0,-0.17578 0,-143.85157 0,-0.94531 -89.74024,-94.615234 z"
         style="fill:#8c4600;fill-opacity:1"
         inkscape:connector-curvature="0" />
      <path
         id="rect3062"
         sodipodi:nodetypes="ccccc"
         d="m 383.25591,477.83969 0,5.17619 185.97521,5.67995 0,-5.17618 z"
         style="fill:#000000;fill-opacity:0.19108282"
         inkscape:connector-curvature="0" />
      <path
         id="path3084"
         d="m 434.61464,410.98558 -5.3133,5.02191 97.12855,2.86235 -5.05623,-5.33047 -86.75699,-2.55587 z"
         style="fill:#000000;fill-opacity:0.19108282"
         inkscape:connector-curvature="0" />
      <path
         id="path3082"
         d="m 399.47856,444.21738 -5.31358,5.02399 165.7257,4.90195 -5.05624,-5.33047 -155.35413,-4.59344 z"
         style="fill:#000000;fill-opacity:0.19108282"
         inkscape:connector-curvature="0" />
      <path
         id="path3080"
         sodipodi:nodetypes="ccccc"
         d="m 383.55757,513.02404 0,5.17619 185.67355,4.77125 0,-5.17619 z"
         style="fill:#000000;fill-opacity:0.19108282"
         inkscape:connector-curvature="0" />
      <path
         id="path3078"
         sodipodi:nodetypes="ccccc"
         d="m 383.55757,547.14436 0,5.17619 185.67355,4.92268 0,-5.17619 z"
         style="fill:#000000;fill-opacity:0.19108282"
         inkscape:connector-curvature="0" />
      <path
         id="path3065"
         sodipodi:nodetypes="ccccc"
         style="fill:#000000;fill-opacity:0.19108282"
         inkscape:connector-curvature="0"
         d="m 383.25591,581.12208 0,5.17618 185.97521,5.2256 0,-5.17618 z" />
      <path
         id="path3086"
         sodipodi:nodetypes="ccccc"
         style="fill:#000000;fill-opacity:0.19215686"
         inkscape:connector-curvature="0"
         d="m 569.25854,483.90028 0,5.12891 63.55122,-56.00975 0,-5.12891 z" />
      <path
         id="path3092"
         sodipodi:nodetypes="ccccc"
         style="fill:#000000;fill-opacity:0.19108282"
         inkscape:connector-curvature="0"
         d="m 569.5602,517.70798 0,5.1289 62.64076,-55.86167 0,-5.1289 z" />
      <path
         id="path3094"
         sodipodi:nodetypes="ccccc"
         style="fill:#000000;fill-opacity:0.19108282"
         inkscape:connector-curvature="0"
         d="m 568.80331,552.27804 0,5.12891 63.09599,-54.79983 0,-5.12891 z" />
      <path
         id="path3096"
         style="fill:#000000;fill-opacity:0.19108282"
         sodipodi:nodetypes="ccccc"
         inkscape:connector-curvature="0"
         d="m 570.01543,586.39287 -0.45434,5.28034 62.64076,-56.76664 0,-5.12891 z" />
      <path
         style="fill:#786000;fill-opacity:1"
         d="m 528.6057,607.06734 -100.59961,-3.02148 0.01,1.36328 100.58984,2.21484 0,-0.55664 z"
         id="path4183"
         inkscape:connector-curvature="0" />
      <path
         style="fill:#371c00;fill-opacity:1"
         d="m 528.6057,554.94384 -61.21484,-2.62259 -39.57031,23.56055 0.18554,28.16406 100.59961,3.02148 z"
         id="path4181"
         inkscape:connector-curvature="0"
         sodipodi:nodetypes="cccccc" />
      <path
         style="fill:#2a1600;fill-opacity:1"
         d="m 470.15062,440.10055 c -24.26382,3.92968 -42.84375,28.02029 -42.84375,57.64843 l 0.51368,78.13282 42.32947,-23.56055 0.002,0 z"
         id="path4186"
         inkscape:connector-curvature="0"
         sodipodi:nodetypes="cccccc" />
      <path
         style="fill:#412000;fill-opacity:1"
         d="m 470.151,440.10055 0,112.22044 58.4547,2.62259 0,-63.69264 -0.29687,-0.008 c -3.61442,-28.73434 -24.72466,-51.20423 -50.22852,-51.76367 -2.7044,-0.0596 -5.33926,0.20162 -7.92931,0.6211 z"
         id="path2204"
         inkscape:connector-curvature="0"
         sodipodi:nodetypes="cccccccc" />
      <path
         id="path3060"
         d="M 478.9521,356.89449 596.96651,479.94159 653.52769,426.8671 553.35291,320.54946 Z"
         sodipodi:nodetypes="ccccc"
         style="fill:#7f6554;fill-opacity:1"
         inkscape:connector-curvature="0" />
      <path
         id="path3961"
         d="m 383.36012,472.82119 3.12469,0.0478 94.995,-87.55775 0.69837,-12.96199 -98.53264,95.12115 z"
         sodipodi:nodetypes="cccccc"
         style="fill:#000000;fill-opacity:0.28112003"
         inkscape:connector-curvature="0" />
      <path
         id="path4264"
         d="m 481.76977,441.25875 c -5.45577,-0.0818 -10.93189,0.84768 -16.03321,2.76563 -11.28029,4.23773 -20.09917,12.62054 -25.99219,22.84179 l 30.97852,-9.70117 15.7793,-15.56836 c -1.57023,-0.19443 -3.14949,-0.31415 -4.73242,-0.33789 z"
         style="fill:#2b231c;fill-opacity:1"
         inkscape:connector-curvature="0" />
      <path
         sodipodi:nodetypes="ccccccccccccccccccccccc"
         inkscape:connector-curvature="0"
         id="path4222"
         d="m 470.19756,457.32104 -30.72673,9.47757 c -1.07744,1.84334 -1.53179,3.34607 -2.425,5.3365 l 33.15173,-9.68516 z m -0.11793,24.1474 -39.56827,12.79512 c -0.002,0.23957 -0.0137,0.47649 -0.0137,0.71679 l 0.0293,4.40821 39.55265,-12.79121 0,-5.12891 z m 0.11993,31.01218 -39.48893,14.86692 0.0332,5.11524 39.45573,-14.85325 z m -0.23587,25.25299 -39.06556,18.27214 0.0352,5.11328 39.03041,-18.25651 0,-5.12891 z"
         style="fill:#000000;fill-opacity:0.19215686" />
      <path
         id="path3058"
         sodipodi:nodetypes="ccccccc"
         style="fill:#90725d;fill-opacity:1"
         inkscape:connector-curvature="0"
         d="m 363.75641,468.44988 19.61523,0.99383 94.995,-87.55775 97.69896,98.20904 21.3048,-0.0634 -118.30446,-123.109 z" />
      <path
         id="path3954"
         d="m 478.08089,439.46873 c -20.40034,-0.72508 -38.52508,14.23554 -45.7616,32.63945 -4.98537,11.12681 -5.26772,23.41418 -4.94242,35.37247 0.21305,32.63891 0.42611,65.2789 0.63918,97.91835 2.52115,0.30472 4.87118,0.4357 3.90588,-2.79944 -0.17414,-35.36974 -0.59092,-70.74166 -0.61149,-106.11249 0.72721,-21.9229 13.24006,-44.50396 34.42691,-52.46335 10.20264,-3.83589 21.89767,-3.71556 31.95112,0.53422 -6.05237,-3.1175 -12.78867,-4.95301 -19.6078,-5.09046 z"
         style="fill:#653300;fill-opacity:1"
         inkscape:connector-curvature="0" />
      <path
         sodipodi:nodetypes="cccccccccccccccccccc"
         inkscape:connector-curvature="0"
         id="path4171"
         d="m 470.07142,457.54391 0,5.1289 47.48535,0 c -1.23054,-1.79552 -2.55174,-3.50353 -3.94718,-5.1289 z m -0.60108,23.87741 0,5.1289 58.10039,0.23587 c -0.34126,-1.73836 -0.74817,-3.44874 -1.21772,-5.1289 z m 0.43557,31.07646 0,5.12891 58.69979,-0.11794 0,-5.12891 z m -0.28146,25.64769 0,5.12891 58.98125,0 0,-5.12891 z"
         style="fill:#000000;fill-opacity:0.19215686" />
      <path
         style="fill:#6a5445;fill-opacity:1"
         d="m 191.79102,13.111328 -71.5625,38.660156 4.5957,4.166016 69.55273,-40.875 z m 24.96289,27.390625 -70.39453,39.488281 4.5957,4.166016 68.38476,-41.703125 z m 24.625,25.470703 -68.74219,40.636724 4.59766,4.16601 66.72851,-42.851562 z m 22.08805,24.107259 -61.18773,47.175745 4.59765,4.16601 58.86946,-49.390583 z"
         transform="translate(373.76,320.54)"
         id="path4231"
         inkscape:connector-curvature="0"
         sodipodi:nodetypes="cccccccccccccccccccc" />
      <path
         id="path4189"
         d="m 493.98852,372.31148 -12.05487,12.05277 1.42408,2.9451 15.22649,-10.83185 z"
         style="fill:#675448;fill-opacity:1"
         inkscape:connector-curvature="0"
         sodipodi:nodetypes="ccccc" />
      <path
         id="path4187"
         d="m 520.46508,400.44234 -12.38487,11.38885 3.41388,3.44501 13.56669,-10.66589 z"
         style="fill:#675448;fill-opacity:1"
         inkscape:connector-curvature="0"
         sodipodi:nodetypes="ccccc" />
      <path
         id="path4184"
         d="m 546.52758,427.33492 -12.71683,10.72297 4.57575,4.2749 12.73873,-10.83185 z"
         style="fill:#675448;fill-opacity:1"
         inkscape:connector-curvature="0"
         sodipodi:nodetypes="ccccc" />
      <path
         inkscape:connector-curvature="0"
         id="path4163"
         d="m 576.33586,457.53414 -11.66323,11.86201 2.33937,1.8942 13.48628,-9.71182 -4.16242,-4.04439 z"
         style="fill:#675448;fill-opacity:1" />
      <path
         inkscape:connector-curvature="0"
         id="path4180"
         d="m 461.65847,374.12978 12.60217,11.54617 -2.52864,2.42641 -14.27243,-10.20565 z"
         style="fill:#675448;fill-opacity:1"
         sodipodi:nodetypes="ccccc" />
      <path
         inkscape:connector-curvature="0"
         id="path4178"
         d="m 434.57793,400.22123 11.16049,11.90295 -2.23853,1.82124 -12.90326,-9.8338 z"
         style="fill:#675448;fill-opacity:1"
         sodipodi:nodetypes="ccccc" />
      <path
         inkscape:connector-curvature="0"
         id="path4176"
         d="m 407.99764,425.84618 11.54555,10.28283 -2.40733,2.20646 -12.62927,-9.24058 z"
         style="fill:#675448;fill-opacity:1"
         sodipodi:nodetypes="ccccc" />
      <path
         inkscape:connector-curvature="0"
         id="path4172"
         d="m 378.8598,453.88094 11.92375,8.95803 -2.43752,2.24583 -13.15045,-7.58523 z"
         style="fill:#675448;fill-opacity:1"
         sodipodi:nodetypes="ccccc" />
    </g>
  </g>
  <metadata
     id="metadata37">
    <rdf:RDF>
      <cc:Work>
        <dc:format>image/svg+xml</dc:format>
        <dc:type
           rdf:resource="http://purl.org/dc/dcmitype/StillImage" />
        <cc:license
           rdf:resource="http://creativecommons.org/publicdomain/zero/1.0/" />
        <dc:publisher>
          <cc:Agent
             rdf:about="http://openclipart.org/">
            <dc:title>Openclipart</dc:title>
          </cc:Agent>
        </dc:publisher>
        <dc:title></dc:title>
      </cc:Work>
      <cc:License
         rdf:about="http://creativecommons.org/publicdomain/zero/1.0/">
        <cc:permits
           rdf:resource="http://creativecommons.org/ns#Reproduction" />
        <cc:permits
           rdf:resource="http://creativecommons.org/ns#Distribution" />
        <cc:permits
           rdf:resource="http://creativecommons.org/ns#DerivativeWorks" />
      </cc:License>
    </rdf:RDF>
  </metadata>
</svg>
