<?xml version="1.0"?>
<svg xmlns:rdf="http://www.w3.org/1999/02/22-rdf-syntax-ns#" xmlns="http://www.w3.org/2000/svg" xmlns:cc="http://web.resource.org/cc/" xmlns:dc="http://purl.org/dc/elements/1.1/" xmlns:svg="http://www.w3.org/2000/svg" id="svg2" viewBox="0 0 469.76 630.56" version="1.0">
  <g id="layer1" transform="translate(-276.27 -56.123)">
    <g id="g2220" transform="matrix(.63454 0 0 .63454 272.65 20.511)">
      <rect id="rect2160" height="637.14" width="734.29" y="412.36" x="8.5714" fill="#fd5"/>
      <path id="path2162" transform="matrix(.96294 .18724 -.28375 .63544 1491.3 442.1)" fill="#c87137" d="m-1022.9 443.79c-349.4 111.05-489-16.26-410.4-374.44 78.5-358.18 258.6-415.39 529.48-168.26 270.92 247.13 230.44 431.65-119.08 542.7z"/>
      <path id="text2200" d="m326.98 466.65h-44.08v-4.99c1.59-0.05 3.63-0.22 6.12-0.5 2.53-0.28 4.26-0.68 5.2-1.19 1.45-0.89 2.51-1.9 3.16-3.03 0.71-1.17 1.06-2.62 1.06-4.35v-72.57h-1.06l-34.03 85.01h-3.51l-32.42-86.76h-0.91v59.55c0 5.77 0.35 10.15 1.05 13.15 0.75 3 1.88 5.15 3.38 6.47 1.03 0.98 3.16 1.92 6.4 2.81 3.23 0.89 5.34 1.36 6.32 1.41v4.99h-40.28v-4.99c2.1-0.19 4.31-0.54 6.6-1.06 2.35-0.51 4.15-1.29 5.42-2.32 1.64-1.31 2.76-3.33 3.37-6.05 0.61-2.71 0.92-7.26 0.92-13.64v-51.04c0-2.96-0.35-5.37-1.06-7.25-0.7-1.87-1.71-3.39-3.02-4.57-1.45-1.26-3.24-2.2-5.34-2.81-2.11-0.61-4.2-0.96-6.26-1.05v-5h34.03l28.55 74.82 24.39-62.58c0.89-2.3 1.64-4.69 2.25-7.17 0.66-2.53 1.01-4.22 1.06-5.07h32.55v5c-1.31 0.04-3 0.25-5.06 0.63-2.01 0.37-3.49 0.73-4.43 1.05-1.59 0.57-2.67 1.5-3.23 2.82-0.57 1.31-0.85 2.74-0.85 4.29v71.93c0 1.64 0.28 3.02 0.85 4.14 0.56 1.13 1.64 2.11 3.23 2.96 0.85 0.47 2.35 0.91 4.5 1.33 2.16 0.38 3.87 0.59 5.13 0.64v4.99m106.53 0h-41.56v-4.99c3.66-0.24 6.68-0.71 9.07-1.41 2.44-0.7 3.66-1.57 3.66-2.6 0-0.42-0.05-0.94-0.14-1.55s-0.24-1.15-0.42-1.62l-8.3-22.36h-34.94c-1.32 3.29-2.4 6.15-3.24 8.58-0.8 2.44-1.52 4.69-2.18 6.75-0.61 2.02-1.03 3.66-1.26 4.92-0.24 1.27-0.36 2.3-0.36 3.1 0 1.87 1.48 3.33 4.43 4.36 2.96 1.03 6.28 1.64 9.99 1.83v4.99h-37.55v-4.99c1.22-0.1 2.74-0.36 4.57-0.78 1.83-0.47 3.33-1.08 4.5-1.83 1.88-1.26 3.33-2.57 4.36-3.93 1.03-1.41 2.04-3.33 3.02-5.77 5.02-12.51 10.55-26.58 16.6-42.19 6.04-15.61 11.44-29.5 16.17-41.69h5.62l33.26 86.06c0.71 1.83 1.5 3.31 2.39 4.43 0.89 1.13 2.14 2.23 3.73 3.31 1.08 0.65 2.48 1.21 4.22 1.68 1.73 0.42 3.19 0.66 4.36 0.71v4.99m-40.22-40.78l-15.12-38.68-14.83 38.68h29.95m139.5 40.78h-46.69v-4.99c3.85-0.1 6.94-0.45 9.28-1.06 2.39-0.66 3.59-1.64 3.59-2.95 0-0.71-0.54-2.16-1.62-4.36s-2.46-4.67-4.15-7.38c-1.87-3-4.1-6.52-6.68-10.55-2.57-4.08-5.13-7.97-7.66-11.67-4.13 5.43-8.81 12-14.06 19.68-5.25 7.65-7.88 12.15-7.88 13.5 0 1.55 0.7 2.7 2.11 3.45 1.45 0.7 4.62 1.15 9.49 1.34v4.99h-37.26v-4.99c1.22-0.1 2.76-0.26 4.64-0.5 1.92-0.28 3.49-0.72 4.71-1.33 2.44-1.31 4.38-2.72 5.84-4.22 1.5-1.55 3-3.35 4.5-5.42 3-4.12 6.84-9.25 11.53-15.39 4.68-6.19 8.83-11.82 12.44-16.88-2.72-3.98-6.19-9.02-10.4-15.12-4.22-6.14-8.72-12.7-13.5-19.68-2.02-2.96-3.61-5.04-4.79-6.26-1.12-1.22-2.64-2.27-4.57-3.17-1.12-0.51-2.69-0.91-4.71-1.19-1.97-0.33-3.54-0.54-4.71-0.63v-5h46.2v5c-2.72 0.09-5.56 0.44-8.51 1.05-2.91 0.56-4.36 1.45-4.36 2.67 0 0.89 0.59 2.46 1.76 4.71 1.17 2.21 2.55 4.57 4.15 7.11 1.64 2.62 3.47 5.53 5.48 8.71 2.02 3.19 4.48 6.87 7.38 11.04 5.3-7.17 9.87-13.64 13.71-19.4 3.85-5.77 5.77-9.52 5.77-11.25 0-1.5-0.89-2.6-2.67-3.31-1.74-0.7-4.69-1.15-8.86-1.33v-5h37.19v5c-1.17 0.04-2.71 0.23-4.64 0.56-1.87 0.28-3.44 0.7-4.71 1.26-2.43 1.18-4.26 2.44-5.48 3.8-1.17 1.36-2.77 3.33-4.78 5.91-3.75 4.83-7.22 9.37-10.41 13.64-3.14 4.22-6.94 9.37-11.39 15.47 3.75 5.34 7.92 11.41 12.52 18.21 4.64 6.8 9.07 13.29 13.29 19.47 1.45 2.11 3.11 4.13 4.99 6.05 1.87 1.88 3.4 3.17 4.57 3.87 1.12 0.66 2.62 1.08 4.5 1.26 1.92 0.15 3.54 0.24 4.85 0.29v4.99"/>
      <g id="g2208" transform="matrix(1 0 0 .97654 -1048.6 -14.442)">
        <path id="path2204" d="m1585.7 712.36a151.43 154.29 0 1 1 -302.8 0 151.43 154.29 0 1 1 302.8 0z"/>
        <rect id="rect2206" y="672.36" width="300" x="1282.9" height="417.14"/>
      </g>
      <g id="g3383" transform="translate(1245.9 185.46)">
        <path id="path2166" fill="#ffe680" d="m-762.86 455.22a95.714 97.143 0 1 1 -191.43 0 95.714 97.143 0 1 1 191.43 0z"/>
        <g id="g3353" transform="translate(0 -6.5458)">
          <rect id="rect2184" height="311.43" width="174.29" y="532.36" x="-945.71" fill="#ffe680"/>
          <g id="g2174" transform="matrix(.79249 0 0 .65293 -434.81 458.38)" fill="#a05a2c">
            <path id="path2168" transform="matrix(1.4583 0 0 1.6667 1033.8 64.139)" d="m-971.43 92.362a34.286 34.286 0 1 1 -68.57 0 34.286 34.286 0 1 1 68.57 0z"/>
            <path id="path2172" d="m-374.29 278.08l-221.57 2.21 108.87-193 112.7 190.79z" transform="matrix(.49712 0 0 1.6366 -188.22 -229.85)"/>
          </g>
          <g id="g2178" transform="matrix(.79249 0 0 .65293 -599.74 459.49)" fill="#a05a2c">
            <path id="path2180" transform="matrix(1.4583 0 0 1.6667 1033.8 64.139)" d="m-971.43 92.362a34.286 34.286 0 1 1 -68.57 0 34.286 34.286 0 1 1 68.57 0z"/>
            <path id="path2182" d="m-374.29 278.08l-221.57 2.21 108.87-193 112.7 190.79z" transform="matrix(.49712 0 0 1.6366 -188.22 -229.85)"/>
          </g>
          <path id="path2194" transform="matrix(1.4444 0 0 1.65 1046 186.11)" fill="#a05a2c" d="m-1228.6 375.22a25.714 28.571 0 1 1 -51.4 0 25.714 28.571 0 1 1 51.4 0z"/>
          <path id="path2196" transform="matrix(1.4444 0 0 1.65 874.6 184.68)" fill="#a05a2c" d="m-1228.6 375.22a25.714 28.571 0 1 1 -51.4 0 25.714 28.571 0 1 1 51.4 0z"/>
          <path id="path2188" transform="matrix(1.2222 0 0 1.15 641.59 405.15)" fill="#784421" d="m-1228.6 375.22a25.714 28.571 0 1 1 -51.4 0 25.714 28.571 0 1 1 51.4 0z"/>
          <path id="path2198" transform="matrix(1.2222 0 0 1.15 715.87 406.57)" fill="#784421" d="m-1228.6 375.22a25.714 28.571 0 1 1 -51.4 0 25.714 28.571 0 1 1 51.4 0z"/>
          <path id="path2226" stroke="#000" stroke-width="1px" fill="none" d="m-971.43 800.93c2.63-10.82-4.81-22.09-8.57-37.14-3.31-13.24-5.71-24.12-5.71-40v-37.14c0-14.35 7.11-22.81 11.42-31.43 3.07-6.12 9.57-12.56 11.43-20"/>
          <path id="path2238" stroke="#000" stroke-width="1px" fill="none" d="m-737.14 795.22c9.49-9.28 14.28-24.21 14.28-42.86 0-11.31 2.86-25.19 2.86-40 0-14.6-0.17-29.26-2.86-40-2.01-8.03-10.9-21.79-14.28-28.57-3.1-6.19-18.18-10.63-22.86-20-0.85-1.7 0-3.81 0-5.71"/>
          <g id="g3299" transform="matrix(.63080 0 0 .69741 -446.47 518.05)">
            <path id="path3266" d="m-706.57-155.34c16.41 0 29.72 20.93 29.72 46.73 0 7.05-1 13.741-2.79 19.738-4.03-18.278-15.08-31.418-28.08-31.418-11.91 0-22.19 11.05-26.93 26.988-1.05-4.795-1.64-9.948-1.64-15.308 0-25.8 13.32-46.73 29.72-46.73z" stroke-opacity=".96711" stroke="#170000" stroke-width=".42636" fill="#e3dbdb"/>
            <path id="path3277" stroke="#170000" transform="matrix(2.0227 0 0 .51149 739.03 -57.316)" stroke-opacity=".96711" d="m-707.3-86.324a7.6642 31.022 0 1 1 -15.33 0 7.6642 31.022 0 1 1 15.33 0z"/>
            <path id="path3279" d="m-753.28-193.99a3.8321 4.3796 0 1 1 -7.67 0 3.8321 4.3796 0 1 1 7.67 0z" stroke-opacity=".96711" transform="translate(55.474 88.321)" stroke="#170000" fill="#fff"/>
            <path id="path3283" d="m-612.77-151.63c16.4 0 29.72 20.93 29.72 46.73 0 7.049-1.01 13.737-2.79 19.734-4.04-18.274-15.09-31.424-28.08-31.424-11.92 0-22.2 11.06-26.93 26.994-1.06-4.795-1.64-9.948-1.64-15.304 0-25.8 13.31-46.73 29.72-46.73z" stroke-opacity=".96711" stroke="#170000" stroke-width=".42636" fill="#e3dbdb"/>
            <path id="path3285" stroke="#170000" transform="matrix(2.0227 0 0 .51149 832.83 -53.61)" stroke-opacity=".96711" d="m-707.3-86.324a7.6642 31.022 0 1 1 -15.33 0 7.6642 31.022 0 1 1 15.33 0z"/>
            <path id="path3287" d="m-753.28-193.99a3.8321 4.3796 0 1 1 -7.67 0 3.8321 4.3796 0 1 1 7.67 0z" stroke-opacity=".96711" transform="translate(149.27 92.027)" stroke="#170000" fill="#fff"/>
            <path id="path3289" d="m-706.2-25.74c-20.9 36.297-27.16 36.305-48.15 0.058-20.98-36.248-17.86-41.671 24.02-41.721 41.89-0.05 45.02 5.366 24.13 41.663z" stroke="#170000" stroke-opacity=".96711" transform="matrix(.80314 0 0 .91730 -78.442 1.2892)"/>
            <path id="path3295" d="m-694.89-52.017c14.96-37.592 14.96-37.592 14.96-37.592" fill-rule="evenodd" stroke="#000" stroke-width="1px" fill="#f2f2f2"/>
            <path id="path3297" stroke="#000" stroke-width="1px" fill="none" d="m-635.4-52.747l-5.84-37.957"/>
          </g>
          <path id="path3330" stroke="#170000" stroke-opacity=".96711" d="m-911.91 498.64c1.74 33.87 21.54 60.59 45.69 60.59 24.14 0 43.94-26.72 45.68-60.59-6.16 22.44-24.29 38.72-45.68 38.72-21.4 0-39.53-16.28-45.69-38.72z"/>
          <path id="path3337" stroke-width="1px" stroke="#000" fill-rule="evenodd" d="m-866.23 535.24v-24 13.09-6.54"/>
          <path id="path3341" d="m-2044.5 183.95a36.002 80.732 0 1 1 -72 0 36.002 80.732 0 1 1 72 0z" stroke-opacity=".96711" transform="matrix(.46249 0 0 .39544 94.889 494.14)" stroke="#170000" fill="#f00"/>
          <path id="path3349" stroke="#000" stroke-width="1px" fill="none" d="m-861.86 821.08c-2.19-133.1-2.19-130.92-2.19-130.92"/>
          <path id="path3351" stroke="#000" stroke-width="1px" fill="none" d="m-842.23 818.9l-2.18-128.74"/>
        </g>
      </g>
    </g>
  </g>
  <metadata>
    <rdf:RDF>
      <cc:Work>
        <dc:format>image/svg+xml</dc:format>
        <dc:type rdf:resource="http://purl.org/dc/dcmitype/StillImage"/>
        <cc:license rdf:resource="http://creativecommons.org/licenses/publicdomain/"/>
        <dc:publisher>
          <cc:Agent rdf:about="http://openclipart.org/">
            <dc:title>Openclipart</dc:title>
          </cc:Agent>
        </dc:publisher>
        <dc:title>Puppy &amp; Doghouse</dc:title>
        <dc:date>2007-09-03T16:41:26</dc:date>
        <dc:description>Drawing of puppy in door of doghouse.</dc:description>
        <dc:source>http://openclipart.org/detail/5165/puppy-&amp;-doghouse-by-megansb</dc:source>
        <dc:creator>
          <cc:Agent>
            <dc:title>megansb</dc:title>
          </cc:Agent>
        </dc:creator>
        <dc:subject>
          <rdf:Bag>
            <rdf:li>clip art</rdf:li>
            <rdf:li>clipart</rdf:li>
            <rdf:li>dog</rdf:li>
            <rdf:li>doghouse</rdf:li>
            <rdf:li>image</rdf:li>
            <rdf:li>media</rdf:li>
            <rdf:li>public domain</rdf:li>
            <rdf:li>puppy</rdf:li>
            <rdf:li>svg</rdf:li>
          </rdf:Bag>
        </dc:subject>
      </cc:Work>
      <cc:License rdf:about="http://creativecommons.org/licenses/publicdomain/">
        <cc:permits rdf:resource="http://creativecommons.org/ns#Reproduction"/>
        <cc:permits rdf:resource="http://creativecommons.org/ns#Distribution"/>
        <cc:permits rdf:resource="http://creativecommons.org/ns#DerivativeWorks"/>
      </cc:License>
    </rdf:RDF>
  </metadata>
</svg>
